<svg width="36.000000" height="36.000000" viewBox="0 0 36 36" fill="none" xmlns="http://www.w3.org/2000/svg" xmlns:xlink="http://www.w3.org/1999/xlink">
	<desc>
			Created with Pixso.
	</desc>
	<defs/>
	<path id="icon" d="M18 3C9.71 3 3 9.71 3 18C3 26.28 9.71 33 18 33C26.28 33 33 26.28 33 18C33 9.71 26.28 3 18 3ZM27.54 25.24C25.39 22.63 20.18 21.75 18 21.75C15.81 21.75 10.6 22.63 8.45 25.24C6.92 23.23 6 20.73 6 18C6 11.38 11.38 6 18 6C24.61 6 30 11.38 30 18C30 20.73 29.07 23.23 27.54 25.24ZM12.75 14.25C12.75 11.34 15.09 9 18 9C20.9 9 23.25 11.34 23.25 14.25C23.25 17.15 20.9 19.5 18 19.5C15.09 19.5 12.75 17.15 12.75 14.25Z" fill="#000000" fill-opacity="1.000000" fill-rule="evenodd"/>
</svg>
