<svg width="60" height="60" viewBox="0 0 60 60" fill="none" xmlns="http://www.w3.org/2000/svg">
<path d="M55.0775 27.1874L49.7375 18.3299C49.3467 17.6867 48.7974 17.1545 48.1421 16.7843C47.4869 16.414 46.7476 16.2179 45.995 16.2149H41.8025V15.5924C41.8026 14.6934 41.625 13.8033 41.2801 12.9731C40.9352 12.143 40.4296 11.3891 39.7925 10.7549C38.5046 9.47154 36.7607 8.75062 34.9425 8.74991H9.985C8.62666 8.74091 7.29653 9.13746 6.16485 9.88879C5.03318 10.6401 4.15144 11.7121 3.6325 12.9674C3.28915 13.7996 3.11575 14.6922 3.1225 15.5924V37.9874C3.12391 39.0392 3.50635 40.0549 4.19903 40.8463C4.8917 41.6378 5.84769 42.1516 6.89 42.2924C6.87834 42.5174 6.87834 42.7416 6.89 42.9649C6.88112 44.0252 7.08645 45.0764 7.49371 46.0555C7.90096 47.0345 8.50173 47.9212 9.26 48.6624C10.0041 49.4369 10.8947 50.0556 11.8802 50.4827C12.8656 50.9097 13.9261 51.1365 15 51.1499C17.1434 51.1305 19.1939 50.2726 20.7125 48.7599C22.2297 47.2496 23.0918 45.2031 23.1125 43.0624C23.1253 42.8559 23.1253 42.6489 23.1125 42.4424H36.885C36.8722 42.6489 36.8722 42.8559 36.885 43.0624C36.8758 44.1231 37.081 45.1748 37.4882 46.1543C37.8955 47.1338 38.4964 48.0209 39.255 48.7624C39.9997 49.5375 40.8911 50.1565 41.8775 50.5836C42.8638 51.0107 43.9253 51.2372 45 51.2499C47.1434 51.2305 49.1939 50.3726 50.7125 48.8599C52.2288 47.3492 53.09 45.3027 53.11 43.1624C53.1229 42.9551 53.1229 42.7472 53.11 42.5399H55C55.4931 42.5329 55.9642 42.3343 56.3136 41.9863C56.6631 41.6383 56.8635 41.168 56.8725 40.6749V33.4849C56.8725 31.2599 56.25 29.0799 55.0775 27.1874ZM19.3425 42.9624C19.3432 43.5339 19.2287 44.0996 19.0058 44.6259C18.7828 45.1521 18.4561 45.6279 18.045 46.0249C17.2133 46.8152 16.1098 47.2559 14.9625 47.2559C13.8152 47.2559 12.7117 46.8152 11.88 46.0249C11.4746 45.6204 11.1536 45.1394 10.9356 44.6098C10.7176 44.0802 10.6069 43.5126 10.61 42.9399C10.5983 42.3486 10.7178 41.762 10.96 41.2224C11.29 40.4399 11.8575 39.7799 12.58 39.3299C13.319 38.8415 14.1894 38.5903 15.075 38.6099C15.92 38.6099 16.745 38.8599 17.445 39.3299C18.1625 39.7874 18.7275 40.4449 19.07 41.2224C19.315 41.7599 19.445 42.3474 19.4425 42.9399L19.3425 42.9624ZM27.4525 30.5224H14.9775C14.3171 30.5218 13.6837 30.2598 13.2158 29.7937C12.7478 29.3276 12.4833 28.6953 12.48 28.0349C12.4793 27.7073 12.5435 27.3828 12.6687 27.0801C12.7939 26.7774 12.9777 26.5024 13.2096 26.271C13.4415 26.0395 13.7168 25.8563 14.0198 25.7317C14.3228 25.6071 14.6474 25.5436 14.975 25.5449H27.4525C28.1129 25.5462 28.746 25.8088 29.2135 26.2754C29.681 26.7419 29.9449 27.3745 29.9475 28.0349C29.9478 28.3623 29.8835 28.6865 29.7581 28.989C29.6328 29.2914 29.4489 29.5661 29.217 29.7972C28.9852 30.0284 28.7099 30.2114 28.4071 30.3359C28.1043 30.4603 27.7799 30.5237 27.4525 30.5224ZM27.4525 21.9624H14.9775C14.3171 21.9618 13.6837 21.6998 13.2158 21.2337C12.7478 20.7676 12.4833 20.1353 12.48 19.4749C12.4797 19.1475 12.544 18.8233 12.6694 18.5209C12.7948 18.2184 12.9786 17.9437 13.2105 17.7126C13.4423 17.4814 13.7176 17.2984 14.0204 17.1739C14.3232 17.0495 14.6476 16.9861 14.975 16.9874H27.4525C28.1125 16.9887 28.7452 17.251 29.2126 17.717C29.68 18.183 29.9442 18.8149 29.9475 19.4749C29.9478 19.8023 29.8835 20.1265 29.7581 20.429C29.6328 20.7314 29.4489 21.0061 29.217 21.2372C28.9852 21.4684 28.7099 21.6514 28.4071 21.7759C28.1043 21.9003 27.7799 21.9637 27.4525 21.9624ZM49.2875 42.9624C49.2879 43.5341 49.173 44.0999 48.9496 44.6262C48.7263 45.1524 48.399 45.6281 47.9875 46.0249C47.1559 46.8145 46.053 47.2547 44.9063 47.2547C43.7595 47.2547 42.6566 46.8145 41.825 46.0249C41.4192 45.6206 41.0977 45.1397 40.8792 44.6101C40.6608 44.0805 40.5497 43.5128 40.5525 42.9399C40.5419 42.0334 40.832 41.149 41.3775 40.4249C41.9925 39.6074 42.875 39.0249 43.8725 38.7824H44.4975C44.6117 38.7552 44.7308 38.7552 44.845 38.7824H45.345C46.1025 38.8699 46.825 39.1524 47.44 39.6049C48.0575 40.0574 48.54 40.6674 48.8375 41.3724C49.085 41.9099 49.2125 42.4974 49.2125 43.0874L49.2875 42.9624Z" fill="black"/>
<path d="M44.9 38.5849C44.785 38.5573 44.6651 38.5573 44.55 38.5849H44.9Z" fill="black"/>
</svg>
