<svg width="60" height="60" viewBox="0 0 60 60" fill="none" xmlns="http://www.w3.org/2000/svg">
<path d="M42.4426 48.7501C46.8355 45.841 50.0682 41.4825 51.5772 36.4344C53.0862 31.3863 52.7757 25.9688 50.6999 21.1261C48.6242 16.2834 44.9147 12.3228 40.2183 9.9346C35.5218 7.54641 30.1361 6.88214 25.0001 8.05757M42.4426 48.7501V40.0001M42.4426 48.7501H51.2501M17.5001 11.2901C13.1224 14.2098 9.90646 18.5716 8.41161 23.6169C6.91676 28.6622 7.23753 34.0719 9.31816 38.9052C11.3988 43.7384 15.1076 47.6896 19.7997 50.0716C24.4919 52.4535 29.8704 53.1155 35.0001 51.9426M17.5001 11.2901V20.0001M17.5001 11.2901H8.75011" stroke="black" stroke-width="3.75" stroke-linecap="round" stroke-linejoin="round"/>
<path d="M26.784 39.176C26.4467 39.176 26.168 39.0953 25.948 38.934C25.728 38.7727 25.596 38.56 25.552 38.296C25.508 38.0173 25.574 37.7093 25.75 37.372L32.394 24.876V25.844H25.266C24.87 25.844 24.562 25.7413 24.342 25.536C24.1367 25.3307 24.034 25.0447 24.034 24.678C24.034 24.2967 24.1367 24.0033 24.342 23.798C24.562 23.5927 24.87 23.49 25.266 23.49H33.78C34.176 23.49 34.4987 23.5927 34.748 23.798C34.9973 24.0033 35.122 24.2967 35.122 24.678C35.122 25.0007 35.078 25.2867 34.99 25.536C34.902 25.7707 34.7847 26.0273 34.638 26.306L28.39 38.252C28.2287 38.5747 28.016 38.8093 27.752 38.956C27.5027 39.1027 27.18 39.176 26.784 39.176Z" fill="black"/>
</svg>
