<svg width="31" height="30" viewBox="0 0 31 30" fill="none" xmlns="http://www.w3.org/2000/svg">
<path d="M5.42847 22.5C5.42847 21.1739 5.95525 19.9022 6.89293 18.9645C7.83061 18.0268 9.10238 17.5 10.4285 17.5H20.4285C21.7545 17.5 23.0263 18.0268 23.964 18.9645C24.9017 19.9022 25.4285 21.1739 25.4285 22.5C25.4285 23.163 25.1651 23.7989 24.6962 24.2678C24.2274 24.7366 23.5915 25 22.9285 25H7.92847C7.26543 25 6.62954 24.7366 6.1607 24.2678C5.69186 23.7989 5.42847 23.163 5.42847 22.5Z" stroke="black" stroke-width="2.5" stroke-linejoin="round"/>
<path d="M15.4285 12.5C17.4995 12.5 19.1785 10.8211 19.1785 8.75001C19.1785 6.67894 17.4995 5.00001 15.4285 5.00001C13.3574 5.00001 11.6785 6.67894 11.6785 8.75001C11.6785 10.8211 13.3574 12.5 15.4285 12.5Z" stroke="black" stroke-width="2.5"/>
</svg>
