<svg width="31" height="30" viewBox="0 0 31 30" fill="none" xmlns="http://www.w3.org/2000/svg">
<path d="M8.77081 10H22.9446C23.305 9.99996 23.6612 10.0779 23.9888 10.2284C24.3163 10.3789 24.6074 10.5984 24.8421 10.872C25.0769 11.1456 25.2497 11.4666 25.3487 11.8132C25.4477 12.1598 25.4706 12.5237 25.4158 12.88L23.8471 23.07C23.7109 23.9556 23.2621 24.7631 22.582 25.3464C21.902 25.9297 21.0355 26.2503 20.1396 26.25H11.5746C10.6788 26.25 9.81266 25.9293 9.13284 25.346C8.45303 24.7627 8.00446 23.9553 7.86831 23.07L6.29956 12.88C6.24477 12.5237 6.26767 12.1598 6.36669 11.8132C6.46571 11.4666 6.63851 11.1456 6.87324 10.872C7.10797 10.5984 7.39908 10.3789 7.72661 10.2284C8.05414 10.0779 8.41035 9.99996 8.77081 10Z" stroke="black" stroke-width="2.5" stroke-linecap="round" stroke-linejoin="round"/>
<path d="M12.1069 13.75V7.5C12.1069 6.50544 12.502 5.55161 13.2053 4.84835C13.9085 4.14509 14.8624 3.75 15.8569 3.75C16.8515 3.75 17.8053 4.14509 18.5086 4.84835C19.2118 5.55161 19.6069 6.50544 19.6069 7.5V13.75" stroke="black" stroke-width="2.5" stroke-linecap="round" stroke-linejoin="round"/>
</svg>
